<svg width="311" height="381" viewBox="0 0 311 381" fill="none" xmlns="http://www.w3.org/2000/svg">
<path d="M252.043 285.936C252.043 335.251 210.84 375.5 159.675 375.5C108.51 375.5 67.3066 335.251 67.3066 285.936C67.3066 236.62 108.51 196.371 159.675 196.371C210.84 196.371 252.043 236.62 252.043 285.936Z" stroke="white" stroke-width="11"/>
<path d="M159.224 274.984C159.224 274.984 159.224 213.897 159.224 168.59C159.224 123.284 200.594 95.795 248.523 92.7407" stroke="white" stroke-width="11" stroke-linecap="round"/>
<path d="M159.224 266.222C159.224 266.222 159.224 205.135 159.224 159.829C159.224 114.522 117.854 87.0333 69.9247 83.979" stroke="white" stroke-width="11" stroke-linecap="round"/>
<path d="M190.794 105.985C201.767 77.8553 239.878 30.5513 304.537 66.3707" stroke="white" stroke-width="11" stroke-linecap="round"/>
<path d="M127.654 100.188C115.212 72.0586 79.2155 21.7896 5.90121 57.6091M159.675 141.368C155.616 112.746 149.933 51.5607 159.675 35.7897" stroke="white" stroke-width="11" stroke-linecap="round"/>
<path d="M162.162 43.6752C160.899 33.5431 164.182 12.1736 187.412 7.75235C191.958 30.4114 172.473 41.1422 162.162 43.6752Z" stroke="white" stroke-width="11" stroke-linejoin="round"/>
<path d="M159.224 44.5514C148.799 42.2969 128.46 31.4304 130.503 6C151.948 6 158.586 31.7009 159.224 44.5514Z" stroke="white" stroke-width="11" stroke-linejoin="round"/>
<path d="M201.621 127.054C233.541 143.634 284.504 148.163 304.823 68.142" stroke="white" stroke-width="11" stroke-linecap="round"/>
<path d="M122.594 118.292C86.4016 134.873 28.6159 139.401 5.57753 59.3803" stroke="white" stroke-width="11" stroke-linecap="round"/>
</svg>
