<svg width="343" height="434" viewBox="0 0 343 434" fill="none" xmlns="http://www.w3.org/2000/svg">
<circle cx="176.478" cy="325.5" r="103" stroke="#21442C" stroke-width="11"/>
<path d="M175.978 313C175.978 313 175.977 243.279 175.978 191.57C175.978 139.86 221.842 108.486 274.978 105" stroke="#21442C" stroke-width="11" stroke-linecap="round"/>
<path d="M175.977 303C175.977 303 175.978 233.279 175.977 181.57C175.977 129.86 130.113 98.486 76.9775 95" stroke="#21442C" stroke-width="11" stroke-linecap="round"/>
<path d="M210.978 120.116C223.143 88.0108 265.393 34.0212 337.077 74.9031" stroke="#21442C" stroke-width="11" stroke-linecap="round"/>
<path d="M140.978 113.5C127.184 81.3949 87.2777 24.0212 5.99918 64.9031M176.478 160.5C171.978 127.833 165.678 58 176.478 40" stroke="#21442C" stroke-width="11" stroke-linecap="round"/>
<path d="M179.235 49C177.835 37.4359 181.474 13.0462 207.228 8C212.267 33.8615 190.665 46.109 179.235 49Z" stroke="#21442C" stroke-width="11" stroke-linejoin="round"/>
<path d="M175.978 50C164.42 47.4269 141.872 35.0246 144.136 6C167.911 6 175.27 35.3333 175.978 50Z" stroke="#21442C" stroke-width="11" stroke-linejoin="round"/>
<path d="M222.981 144.163C258.367 163.087 314.867 168.255 337.393 76.9247" stroke="#21442C" stroke-width="11" stroke-linecap="round"/>
<path d="M135.368 134.163C95.2444 153.087 31.1813 158.255 5.64024 66.9247" stroke="#21442C" stroke-width="11" stroke-linecap="round"/>
</svg>
