<svg width="311" height="464" viewBox="0 0 311 464" fill="none" xmlns="http://www.w3.org/2000/svg">
<path d="M252.043 285.936C252.043 335.251 210.84 375.5 159.675 375.5C108.51 375.5 67.3066 335.251 67.3066 285.936C67.3066 236.62 108.51 196.371 159.675 196.371C210.84 196.371 252.043 236.62 252.043 285.936Z" stroke="white" stroke-width="11"/>
<path d="M159.224 274.984C159.224 274.984 159.224 213.897 159.224 168.59C159.224 123.284 200.594 95.795 248.523 92.7407" stroke="white" stroke-width="11" stroke-linecap="round"/>
<path d="M159.224 266.222C159.224 266.222 159.224 205.135 159.224 159.829C159.224 114.522 117.854 87.0333 69.9247 83.979" stroke="white" stroke-width="11" stroke-linecap="round"/>
<path d="M190.794 105.985C201.767 77.8553 239.878 30.5513 304.537 66.3707" stroke="white" stroke-width="11" stroke-linecap="round"/>
<path d="M127.654 100.188C115.212 72.0586 79.2155 21.7896 5.90121 57.6091M159.675 141.368C155.616 112.746 149.933 51.5607 159.675 35.7897" stroke="white" stroke-width="11" stroke-linecap="round"/>
<path d="M162.162 43.6752C160.899 33.5431 164.182 12.1736 187.412 7.75235C191.958 30.4114 172.473 41.1422 162.162 43.6752Z" stroke="white" stroke-width="11" stroke-linejoin="round"/>
<path d="M159.224 44.5514C148.799 42.2969 128.46 31.4304 130.503 6C151.948 6 158.586 31.7009 159.224 44.5514Z" stroke="white" stroke-width="11" stroke-linejoin="round"/>
<path d="M201.621 127.054C233.541 143.634 284.504 148.163 304.823 68.142" stroke="white" stroke-width="11" stroke-linecap="round"/>
<path d="M122.594 118.292C86.4016 134.873 28.6159 139.401 5.57753 59.3803" stroke="white" stroke-width="11" stroke-linecap="round"/>
<path d="M17.3711 442L8.38672 413.562H12.2539L18.5039 434.793L18.9141 436.18L19.3438 434.754L25.6328 413.562H29.4805L20.5156 442H17.3711ZM63.0359 430.398H57.3523V442H53.7586V413.562H62.0984C63.4266 413.589 64.6766 413.777 65.8484 414.129C67.0203 414.48 68.049 415.008 68.9344 415.711C69.8068 416.414 70.4904 417.299 70.9852 418.367C71.493 419.422 71.7469 420.665 71.7469 422.098C71.7469 423.022 71.6102 423.868 71.3367 424.637C71.0763 425.405 70.7117 426.102 70.243 426.727C69.7742 427.352 69.2143 427.905 68.5633 428.387C67.9122 428.868 67.1961 429.279 66.4148 429.617L72.45 441.766L72.4305 442H68.6219L63.0359 430.398ZM57.3523 427.43H62.1961C63.0034 427.417 63.7651 427.293 64.4813 427.059C65.1974 426.811 65.8289 426.46 66.3758 426.004C66.9096 425.548 67.3328 424.995 67.6453 424.344C67.9578 423.68 68.1141 422.918 68.1141 422.059C68.1141 421.147 67.9643 420.353 67.6648 419.676C67.3654 418.986 66.9487 418.406 66.4148 417.938C65.881 417.482 65.243 417.137 64.5008 416.902C63.7716 416.668 62.9708 416.544 62.0984 416.531H57.3523V427.43ZM96.8453 413.562H114.033V416.707H107.216V438.875H114.033V442H96.8453V438.875H103.505V416.707H96.8453V413.562ZM139.698 442V413.562H146.28C147.386 413.576 148.428 413.693 149.405 413.914C150.394 414.122 151.306 414.422 152.139 414.812C153.298 415.346 154.32 416.049 155.205 416.922C156.104 417.781 156.82 418.777 157.354 419.91C157.836 420.874 158.2 421.928 158.448 423.074C158.708 424.22 158.845 425.444 158.858 426.746V428.836C158.858 430.086 158.734 431.271 158.487 432.391C158.252 433.51 157.907 434.539 157.452 435.477C156.983 436.453 156.39 437.339 155.674 438.133C154.958 438.927 154.157 439.604 153.272 440.164C152.334 440.75 151.273 441.199 150.088 441.512C148.916 441.824 147.647 441.987 146.28 442H139.698ZM143.37 416.531V439.051H146.28C147.321 439.038 148.265 438.908 149.112 438.66C149.971 438.413 150.733 438.061 151.397 437.605C152.1 437.137 152.705 436.564 153.213 435.887C153.734 435.197 154.144 434.428 154.444 433.582C154.704 432.892 154.899 432.15 155.03 431.355C155.16 430.548 155.232 429.708 155.245 428.836V426.707C155.232 425.822 155.153 424.975 155.01 424.168C154.88 423.348 154.678 422.586 154.405 421.883C154.053 420.971 153.578 420.151 152.979 419.422C152.393 418.68 151.67 418.081 150.811 417.625C150.199 417.286 149.515 417.026 148.76 416.844C148.005 416.648 147.178 416.544 146.28 416.531H143.37ZM182.921 442V413.562H189.503C190.61 413.576 191.652 413.693 192.628 413.914C193.618 414.122 194.529 414.422 195.363 414.812C196.521 415.346 197.543 416.049 198.429 416.922C199.327 417.781 200.043 418.777 200.577 419.91C201.059 420.874 201.424 421.928 201.671 423.074C201.932 424.22 202.068 425.444 202.081 426.746V428.836C202.081 430.086 201.958 431.271 201.71 432.391C201.476 433.51 201.131 434.539 200.675 435.477C200.206 436.453 199.614 437.339 198.898 438.133C198.182 438.927 197.381 439.604 196.495 440.164C195.558 440.75 194.497 441.199 193.312 441.512C192.14 441.824 190.87 441.987 189.503 442H182.921ZM186.593 416.531V439.051H189.503C190.545 439.038 191.489 438.908 192.335 438.66C193.195 438.413 193.956 438.061 194.62 437.605C195.323 437.137 195.929 436.564 196.437 435.887C196.958 435.197 197.368 434.428 197.667 433.582C197.928 432.892 198.123 432.15 198.253 431.355C198.383 430.548 198.455 429.708 198.468 428.836V426.707C198.455 425.822 198.377 424.975 198.234 424.168C198.103 423.348 197.902 422.586 197.628 421.883C197.277 420.971 196.801 420.151 196.202 419.422C195.616 418.68 194.894 418.081 194.034 417.625C193.422 417.286 192.739 417.026 191.984 416.844C191.228 416.648 190.402 416.544 189.503 416.531H186.593ZM244.348 442H240.93V428.855H229.27V442H225.871V413.562H229.27V425.789H240.93V413.562H244.348V442ZM269.739 413.562H286.927V416.707H280.11V438.875H286.927V442H269.739V438.875H276.399V416.707H269.739V413.562Z" fill="white"/>
</svg>
